Normalized EMG Linear Envelopes
nRows=279
nColumns=4

endheader
time	 med_gas_r	  soleus_r	 tib_ant_r	
3.92515	  0.177639	  0.124495	  0.043191	
3.95842	  0.174961	  0.120482	  0.043476	
3.99168	  0.174631	  0.117631	  0.043857	
4.02494	  0.176501	  0.117206	  0.044227	
4.05821	  0.178693	  0.119724	  0.044612	
4.09147	  0.179357	  0.124886	  0.045036	
4.12474	  0.179372	  0.131807	  0.045469	
4.158	  0.179803	  0.139497	  0.045735	
4.19126	  0.180850	  0.147221	  0.045749	
4.22453	  0.181203	  0.154619	  0.045660	
4.25779	  0.179901	  0.161796	  0.045651	
4.29106	  0.178175	  0.169427	  0.045766	
4.32432	  0.176847	  0.177906	  0.045893	
4.35758	  0.175907	  0.186500	  0.046154	
4.39085	  0.174918	  0.192689	  0.046559	
4.42411	  0.174239	  0.192429	  0.046999	
4.45738	  0.174050	  0.184724	  0.047419	
4.49064	  0.173828	  0.173468	  0.047722	
4.5239	  0.172967	  0.161469	  0.047806	
4.55717	  0.170814	  0.150643	  0.047564	
4.59043	  0.168076	  0.142176	  0.046991	
4.6237	  0.166295	  0.136372	  0.046331	
4.65696	  0.166091	  0.132907	  0.045746	
4.69022	  0.166477	  0.130946	  0.045295	
4.72349	  0.165993	  0.129952	  0.044951	
4.75675	  0.165788	  0.129540	  0.044735	
4.79002	  0.166814	  0.129212	  0.044651	
4.82328	  0.168746	  0.128419	  0.044634	
4.85654	  0.170381	  0.127060	  0.044645	
4.88981	  0.170242	  0.125315	  0.044630	
4.92307	  0.168569	  0.123395	  0.044531	
4.95634	  0.167153	  0.121845	  0.044242	
4.9896	  0.167268	  0.121365	  0.043748	
5.02286	  0.169035	  0.122274	  0.043228	
5.05613	  0.171487	  0.124336	  0.042946	
5.08939	  0.173085	  0.126858	  0.043085	
5.12266	  0.173710	  0.129191	  0.043518	
5.15592	  0.174437	  0.131144	  0.044142	
5.18918	  0.176210	  0.132588	  0.044980	
5.22245	  0.178896	  0.133464	  0.045868	
5.25571	  0.180833	  0.133541	  0.046613	
5.28898	  0.180618	  0.132703	  0.047284	
5.32224	  0.179697	  0.131016	  0.047920	
5.3555	  0.179001	  0.128827	  0.048383	
5.38877	  0.178734	  0.126745	  0.048415	
5.42203	  0.178829	  0.125162	  0.047905	
5.4553	  0.180451	  0.124122	  0.047123	
5.48856	  0.183876	  0.123397	  0.046177	
5.52182	  0.187999	  0.122831	  0.045206	
5.55509	  0.191697	  0.122442	  0.044518	
5.58835	  0.196075	  0.121993	  0.044285	
5.62162	  0.201581	  0.121339	  0.044411	
5.65488	  0.207101	  0.120602	  0.044615	
5.68814	  0.211580	  0.120032	  0.044665	
5.72141	  0.214323	  0.119762	  0.044801	
5.75467	  0.214660	  0.119715	  0.045314	
5.78794	  0.212605	  0.119881	  0.046494	
5.8212	  0.209049	  0.120263	  0.048732	
5.85446	  0.206088	  0.120601	  0.052377	
5.88773	  0.204537	  0.120470	  0.057537	
5.92099	  0.204429	  0.119968	  0.063971	
5.95426	  0.206496	  0.119414	  0.071022	
5.98752	  0.211670	  0.119520	  0.077506	
6.02078	  0.220454	  0.120595	  0.081907	
6.05405	  0.233763	  0.122483	  0.084629	
6.08731	  0.256658	  0.124890	  0.087440	
6.12058	  0.293084	  0.127576	  0.091417	
6.15384	  0.343269	  0.130127	  0.097171	
6.1871	  0.406315	  0.132350	  0.105604	
6.22037	  0.477663	  0.134019	  0.118893	
6.25363	  0.546189	  0.134959	  0.138752	
6.2869	  0.602698	  0.134899	  0.165530	
6.32016	  0.639144	  0.133845	  0.198193	
6.35342	  0.640589	  0.132318	  0.234880	
6.38669	  0.606313	  0.131129	  0.272619	
6.41995	  0.553656	  0.130844	  0.308924	
6.45322	  0.502407	  0.131609	  0.343714	
6.48648	  0.467480	  0.133631	  0.374607	
6.51974	  0.458220	  0.136958	  0.398730	
6.55301	  0.477154	  0.140903	  0.418323	
6.58627	  0.518107	  0.145228	  0.434264	
6.61954	  0.572540	  0.150035	  0.447073	
6.6528	  0.630671	  0.155080	  0.457693	
6.68606	  0.671931	  0.159527	  0.465924	
6.71933	  0.681840	  0.163102	  0.473164	
6.75259	  0.672367	  0.165808	  0.480394	
6.78586	  0.662937	  0.167145	  0.488021	
6.81912	  0.666080	  0.166774	  0.496362	
6.85238	  0.684744	  0.165908	  0.508419	
6.88565	  0.711928	  0.165283	  0.523324	
6.91891	  0.732958	  0.164920	  0.537223	
6.95218	  0.732427	  0.164719	  0.548537	
6.98544	  0.721113	  0.164385	  0.554696	
7.0187	  0.715048	  0.164147	  0.554852	
7.05197	  0.719807	  0.163781	  0.553543	
7.08523	  0.733203	  0.163042	  0.556738	
7.1185	  0.746785	  0.163268	  0.566235	
7.15176	  0.740506	  0.165431	  0.578295	
7.18502	  0.707649	  0.169414	  0.586578	
7.21829	  0.667792	  0.174578	  0.586785	
7.25155	  0.642766	  0.180285	  0.582444	
7.28482	  0.642731	  0.185700	  0.576583	
7.31808	  0.665183	  0.189146	  0.570908	
7.35134	  0.699537	  0.189765	  0.567080	
7.38461	  0.735287	  0.188216	  0.566777	
7.41787	  0.754921	  0.184950	  0.571891	
7.45114	  0.760396	  0.180479	  0.581629	
7.4844	  0.767814	  0.175037	  0.594668	
7.51766	  0.786143	  0.168925	  0.610555	
7.55093	  0.813540	  0.162813	  0.631489	
7.58419	  0.832768	  0.157349	  0.657822	
7.61746	  0.827663	  0.153116	  0.684966	
7.65072	  0.807081	  0.150681	  0.710031	
7.68398	  0.784567	  0.150580	  0.732958	
7.71725	  0.767165	  0.153181	  0.751048	
7.75051	  0.750421	  0.158427	  0.762315	
7.78378	  0.720264	  0.165608	  0.765958	
7.81704	  0.686563	  0.173314	  0.759354	
7.8503	  0.666057	  0.180660	  0.743657	
7.88357	  0.667468	  0.186845	  0.720650	
7.91683	  0.690081	  0.191452	  0.694304	
7.9501	  0.720795	  0.194601	  0.669942	
7.98336	  0.742706	  0.196700	  0.651198	
8.01662	  0.740440	  0.197699	  0.639874	
8.04989	  0.724871	  0.197409	  0.639551	
8.08315	  0.711260	  0.196680	  0.646616	
8.11642	  0.710963	  0.196709	  0.656240	
8.14968	  0.730541	  0.198056	  0.667935	
8.18294	  0.766004	  0.199838	  0.679467	
8.21621	  0.799495	  0.200067	  0.686541	
8.24947	  0.825321	  0.197080	  0.687895	
8.28274	  0.857448	  0.191563	  0.683031	
8.316	  0.900320	  0.184385	  0.675500	
8.34926	  0.944170	  0.177043	  0.670225	
8.38253	  0.972508	  0.170875	  0.666905	
8.41579	  0.977915	  0.166397	  0.659441	
8.44906	  0.975164	  0.163928	  0.644734	
8.48232	  0.971974	  0.162878	  0.625900	
8.51558	  0.969658	  0.162264	  0.606546	
8.54885	  0.958975	  0.162258	  0.592450	
8.58211	  0.934599	  0.163071	  0.586446	
8.61538	  0.909019	  0.164587	  0.587050	
8.64864	  0.891206	  0.166445	  0.589117	
8.6819	  0.877117	  0.168001	  0.586934	
8.71517	  0.849890	  0.168790	  0.580870	
8.74843	  0.812277	  0.168424	  0.575695	
8.7817	  0.785595	  0.167296	  0.573780	
8.81496	  0.784275	  0.166366	  0.576791	
8.84822	  0.805621	  0.165696	  0.584968	
8.88149	  0.830463	  0.164635	  0.594153	
8.91475	  0.845178	  0.163869	  0.601666	
8.94802	  0.864044	  0.164166	  0.605700	
8.98128	  0.896311	  0.165057	  0.605219	
9.01454	  0.934984	  0.166076	  0.602067	
9.04781	  0.961816	  0.167068	  0.593965	
9.08107	  0.963412	  0.167965	  0.580762	
9.11434	  0.950817	  0.169511	  0.565571	
9.1476	  0.940383	  0.171713	  0.552696	
9.18086	  0.939276	  0.174169	  0.545834	
9.21413	  0.943974	  0.176297	  0.547116	
9.24739	  0.935893	  0.177553	  0.555612	
9.28066	  0.917778	  0.177976	  0.568397	
9.31392	  0.908884	  0.177479	  0.583497	
9.34718	  0.918706	  0.176085	  0.596934	
9.38045	  0.936526	  0.174636	  0.605163	
9.41371	  0.940730	  0.173872	  0.609499	
9.44698	  0.941907	  0.173686	  0.610264	
9.48024	  0.953916	  0.173997	  0.608433	
9.5135	  0.972794	  0.174639	  0.604448	
9.54677	  0.978332	  0.174636	  0.599385	
9.58003	  0.965120	  0.173344	  0.596509	
9.6133	  0.956673	  0.171657	  0.592928	
9.64656	  0.965858	  0.170249	  0.583172	
9.67982	  0.985513	  0.169591	  0.566889	
9.71309	  0.999205	  0.170138	  0.545191	
9.74635	  0.998288	  0.171198	  0.516403	
9.77962	  0.994999	  0.172060	  0.483421	
9.81288	  0.991319	  0.173143	  0.451901	
9.84614	  0.980356	  0.174832	  0.424170	
9.87941	  0.953672	  0.176148	  0.400993	
9.91267	  0.918791	  0.176097	  0.381260	
9.94594	  0.890049	  0.174810	  0.365396	
9.9792	  0.872523	  0.173123	  0.353108	
10.0125	  0.865078	  0.171572	  0.344876	
10.0457	  0.851791	  0.170082	  0.339618	
10.079	  0.820373	  0.168630	  0.336392	
10.1123	  0.785844	  0.166975	  0.334113	
10.1455	  0.763315	  0.165120	  0.330495	
10.1788	  0.760280	  0.163258	  0.320853	
10.212	  0.772363	  0.161465	  0.302587	
10.2453	  0.785668	  0.158971	  0.279859	
10.2786	  0.782171	  0.155115	  0.257416	
10.3118	  0.769742	  0.150520	  0.239458	
10.3451	  0.763444	  0.146287	  0.227590	
10.3784	  0.768664	  0.143449	  0.219342	
10.4116	  0.783026	  0.142871	  0.211779	
10.4449	  0.800255	  0.144290	  0.204962	
10.4782	  0.799961	  0.146473	  0.198552	
10.5114	  0.760708	  0.148673	  0.191113	
10.5447	  0.692537	  0.150923	  0.181885	
10.578	  0.616213	  0.153171	  0.171060	
10.6112	  0.546418	  0.155198	  0.160328	
10.6445	  0.487605	  0.157233	  0.151477	
10.6777	  0.439258	  0.159671	  0.144791	
10.711	  0.403121	  0.162501	  0.140721	
10.7443	  0.381552	  0.164849	  0.138704	
10.7775	  0.370942	  0.166108	  0.137465	
10.8108	  0.364128	  0.165979	  0.136347	
10.8441	  0.358915	  0.164171	  0.135740	
10.8773	  0.357602	  0.160898	  0.134402	
10.9106	  0.358999	  0.155762	  0.130901	
10.9439	  0.357957	  0.149322	  0.126344	
10.9771	  0.350260	  0.143031	  0.122003	
11.0104	  0.340509	  0.137615	  0.119076	
11.0436	  0.334328	  0.133708	  0.118434	
11.0769	  0.332391	  0.131518	  0.119415	
11.1102	  0.330496	  0.130776	  0.120817	
11.1434	  0.326994	  0.131334	  0.122001	
11.1767	  0.326075	  0.132965	  0.122508	
11.21	  0.328805	  0.135276	  0.121078	
11.2432	  0.332333	  0.137861	  0.117223	
11.2765	  0.330866	  0.140718	  0.110799	
11.3098	  0.325041	  0.143949	  0.102425	
11.343	  0.321169	  0.147355	  0.093628	
11.3763	  0.322773	  0.149946	  0.086160	
11.4096	  0.328170	  0.150906	  0.080758	
11.4428	  0.331646	  0.150040	  0.077138	
11.4761	  0.326231	  0.147828	  0.074581	
11.5093	  0.313421	  0.144693	  0.072023	
11.5426	  0.299072	  0.140961	  0.069022	
11.5759	  0.288997	  0.137225	  0.066213	
11.6091	  0.285477	  0.134079	  0.063822	
11.6424	  0.286698	  0.132216	  0.061592	
11.6757	  0.287080	  0.132015	  0.058738	
11.7089	  0.282061	  0.133898	  0.054830	
11.7422	  0.273844	  0.137585	  0.050697	
11.7755	  0.265030	  0.141711	  0.047079	
11.8087	  0.258602	  0.144464	  0.044485	
11.842	  0.257683	  0.145250	  0.043240	
11.8752	  0.263501	  0.144351	  0.043536	
11.9085	  0.273630	  0.142142	  0.045321	
11.9418	  0.281920	  0.139158	  0.048320	
11.975	  0.284498	  0.136181	  0.052036	
12.0083	  0.283616	  0.133928	  0.055767	
12.0416	  0.284127	  0.132703	  0.058485	
12.0748	  0.290840	  0.132319	  0.058983	
12.1081	  0.304055	  0.131982	  0.057604	
12.1414	  0.319088	  0.131153	  0.055611	
12.1746	  0.330133	  0.130148	  0.053886	
12.2079	  0.339609	  0.129296	  0.052888	
12.2412	  0.348768	  0.128844	  0.052724	
12.2744	  0.355474	  0.129317	  0.053198	
12.3077	  0.357979	  0.130531	  0.053911	
12.3409	  0.353068	  0.131467	  0.054216	
12.3742	  0.344213	  0.131432	  0.053226	
12.4075	  0.336463	  0.130539	  0.051310	
12.4407	  0.329573	  0.129341	  0.049205	
12.474	  0.320598	  0.128654	  0.047320	
12.5073	  0.308482	  0.128964	  0.045778	
12.5405	  0.292254	  0.130283	  0.044563	
12.5738	  0.277551	  0.131889	  0.043694	
12.6071	  0.270663	  0.133148	  0.043148	
12.6403	  0.274465	  0.133979	  0.042837	
12.6736	  0.288340	  0.134540	  0.042729	
12.7068	  0.308352	  0.134821	  0.042773	
12.7401	  0.327436	  0.134573	  0.042939	
12.7734	  0.339221	  0.133739	  0.043258	
12.8066	  0.343857	  0.133105	  0.043677	
12.8399	  0.346928	  0.132971	  0.044008	
12.8732	  0.351762	  0.133280	  0.044085	
12.9064	  0.356946	  0.134586	  0.043861	
12.9397	  0.358446	  0.137111	  0.043383	
12.973	  0.352920	  0.140149	  0.042877	
13.0062	  0.342368	  0.143024	  0.042629	
13.0395	  0.332839	  0.145450	  0.042730	
13.0728	  0.326686	  0.146892	  0.043142	
13.106	  0.321875	  0.146574	  0.043659	
13.1393	  0.315706	  0.144859	  0.043967	
13.1725	  0.304128	  0.142381	  0.043878	
